<?xml version="1.0" standalone="no"?>
<svg viewBox="0 0 200 200" xmlns="http://www.w3.org/2000/svg">
  <path fill="#00FF00" d="M50,-76.4C65,-68.2,77.4,-54.6,84.9,-38.7C92.3,-22.7,94.7,-4.4,91.2,12.4C87.7,29.2,78.2,44.4,66.4,57C54.6,69.7,40.5,79.7,24.6,84.9C8.7,90.1,-9,90.4,-25.7,86.2C-42.4,81.9,-58.2,73,-69.4,60.1C-80.6,47.3,-87.3,30.4,-89.7,12.9C-92.1,-4.5,-90.4,-22.5,-82.9,-37.5C-75.5,-52.4,-62.2,-64.3,-47.4,-72.7C-32.7,-81.1,-16.3,-85.9,0.6,-86.8C17.5,-87.7,35,-84.7,50,-76.4Z" transform="translate(100 100)" />
</svg>
